<?xml version="1.0" encoding="UTF-8"?>
<svg id="Layer_1" data-name="Layer 1" xmlns="http://www.w3.org/2000/svg" viewBox="0 0 2668.48 532.93">
  <defs>
    <style>
      .cls-1 {
        fill: #fff;
      }

      .cls-2 {
        fill: #f7f7f7;
      }

      .cls-3 {
        fill: #f04c23;
      }

      .cls-4 {
        fill: #f79076;
      }
    </style>
  </defs>
  <g>
    <g>
      <path class="cls-2" d="M681.2,172.5c4.24.66,8.81,1.31,13.38,1.31,17.62,0,32.96-7.18,32.96-26.76,0-17.62-11.42-20.88-26.43-20.88-8.49,0-16.64.66-25.13,1.31-2.61,49.93-5.22,89.08-5.22,170.66h-64.61c3.59-32.96,9.46-155,9.46-217.65h115.52c53.52,0,62,42.09,62,62,0,46.34-35.24,74.07-79.62,74.07-7.51,0-14.68-.65-21.86-1.96l-10.44-42.1Z"/>
      <path class="cls-2" d="M887.99,124.01c-3.54,56.38-5.15,113.07-5.8,169.77h-65.96c7.36-66.2,9.91-127.91,10.23-213.3h112.89c15.35,0,76.75,1.6,76.75,56.6,0,33.58-19.83,51.8-49.89,62.36,12.47,31.98,28.14,62.68,41.57,94.34h-70.83c-11.6-40.91-26.74-80.54-41.56-120.48,5.15.97,10.63,1.61,15.78,1.61,18.69,0,40.91-7.09,40.91-29.32s-21.58-21.58-36.4-21.58h-27.7Z"/>
      <path class="cls-2" d="M1300.16,183.17c0,79.25-58.7,117.74-132.74,117.74-66.86,0-128.17-31.96-128.17-106.32,0-90.01,72.4-119.04,135.34-119.04,66.53,0,125.56,34.9,125.56,107.62ZM1107.74,192.3c0,35.87,25.11,60.99,60.98,60.99,39.14,0,62.94-31.31,62.94-68.49,0-35.22-23.48-61.64-59.36-61.64-39.79,0-64.57,30.65-64.57,69.14Z"/>
      <path class="cls-2" d="M1490.57,163.19c1-23.01,2-38.35,2-82.71h69.77c-4.24,64.61-9.14,114.86-9.14,217.65h-70.8c2.98-30.14,4.64-60.28,5.3-91.41h-88.43c-1,21.2-1.66,41.4-2.65,91.41h-70.07c5.22-66.57,10.12-120.74,10.12-217.65h69.87c-2.33,27.35-4.34,54.69-5,82.71h89.05Z"/>
      <path class="cls-2" d="M1675.48,80.48c-2.28,36.2-8.15,100.12-8.15,127.19,0,29.35,10.76,46.64,36.85,46.64,41.09,0,42.4-32.29,45.33-70.12,2.61-34.57,4.57-69.14,5.22-103.71h69.79c-.98,13.37-7.83,103.38-9.79,153.61-1.3,33.26-30.98,67.84-110.56,67.84s-105.34-34.57-105.34-64.58c0-48.92,6.85-99.14,8.15-156.87h68.49Z"/>
      <path class="cls-2" d="M1850.25,298.13c7.18-58.08,16.32-163.48,18.93-217.65h88.07c2.28,18.58,22.49,89.64,29.99,134.94h.65c24.12-87.68,38.46-109.85,44-134.94h89.71c-1.96,31.65-5.87,127.91-5.87,217.65h-59.29c1.29-19,4.83-72.47,4.51-152.36h-.64c-15.46,49.92-33.18,100.82-49.93,152.36h-58.93c-15.82-79.08-28.73-117.17-34.54-152.36h-.65c-4.84,44.22-9.04,124.92-9.36,152.36h-56.66Z"/>
      <path class="cls-2" d="M2224.94,237.19l-27.93,60.94h-76.82c23.17-38.18,96.92-179.47,114.86-217.65h82.23c25.13,73.09,52.21,145.53,79.95,217.65h-74.21c-5.4-20.63-12.7-40.63-20-60.94h-78.08ZM2292.79,189.31l-20.22-62.29-29.35,62.29h49.57Z"/>
      <path class="cls-2" d="M2576.42,219.78h.65c1.61-20.64,5.48-101.57,5.48-139.3h62.76c-1.96,22.19-11.1,160.55-12.08,217.65h-79.26c-25.3-47.64-55.52-92.97-78.85-139.3h-.66c-.98,19.71-4.93,106.44-4.93,139.3h-62.31c4.24-34.59,11.1-155,11.1-217.65h82l76.1,139.3Z"/>
    </g>
    <g>
      <path class="cls-1" d="M1676.87,420.33c-8.1-15.19-16.77-29.93-25.2-44.89,4.27.11,8.66.11,12.94.11s8.66,0,12.94-.11c3.6,9.23,8.55,17.78,12.15,26.89,5.06-9.11,10.69-17.78,15.75-26.89,4.16.11,8.33.11,12.49.11,4.84,0,10.01,0,13.17-.11-10.58,15.53-21.27,30.83-31.39,46.58-.45,9.45-.9,19.02-1.01,28.47-4.05,0-7.99-.11-11.93-.11s-7.99,0-12.04.11c1.12-10.02,1.91-20.14,2.14-30.16Z"/>
      <path class="cls-1" d="M1785.56,421.45c0,19.92-14.52,30.49-33.42,30.49-27.91,0-32.97-19.35-32.97-28.13,0-19.8,15.19-30.72,33.98-30.72,17.55,0,32.41,9.45,32.41,28.36ZM1741.23,423.59c0,6.41,3.15,12.6,10.58,12.6,8.44,0,11.7-7.88,11.7-14.96,0-6.64-3.15-12.38-10.46-12.38-8.33,0-11.81,7.43-11.81,14.74Z"/>
      <path class="cls-1" d="M1832.84,443.23l-.22-.23c-4.65,6.8-11.68,8.85-19.85,8.85-15.76,0-20.3-7.71-20.3-17.24,0-3.63,2.04-29.49,2.04-40.71h22.23c-.45,10.09-2.04,20.19-2.04,30.17,0,5.44,1.81,10.09,8.05,10.09,5.78,0,8.96-4.53,10.09-9.64,1.48-6.35,1.7-19.4,2.04-30.62h22c-1.81,18.83-2.72,37.76-3.17,56.59h-20.87v-7.26Z"/>
      <path class="cls-1" d="M1891.56,400.02l.22-.23c3.63-4.08,8.62-7.26,14.18-7.26,1.47,0,3.06.12,4.54.57l.68,18.26c-1.93-.57-3.97-1.13-5.9-1.13-6.8,0-11.8,4.19-13.38,10.77-1.36,5.78-1.47,15.54-1.47,29.49h-21.89c1.25-15.54,2.27-31.19,2.27-56.59h20.98l-.22,6.12Z"/>
      <path class="cls-1" d="M2014.45,424.37h.22c.55-7.09,1.88-34.91,1.88-47.88h21.68c-.66,7.54-3.77,54.59-4.11,74h-27.43c-8.7-16.37-19.09-31.96-27.1-47.88h-.23c-.34,6.78-1.69,36.59-1.69,47.88h-21.52c1.44-11.76,3.77-52.7,3.77-74h28.37l26.16,47.88Z"/>
      <path class="cls-1" d="M2069.08,424.37c0,8.77,7.31,11.93,14.74,11.93,6.64,0,13.39-1.91,19.69-3.72l-2.7,15.75c-6.41,1.35-13.05,2.14-19.58,2.14-17.89,0-33.53-5.4-33.53-27.57,0-5.96,2.36-31.28,32.29-31.28,18.45,0,28.58,8.67,28.58,24.31,0,2.81-.23,5.62-.79,8.44h-38.71ZM2087.88,415.67c0-6.53-2.7-9.9-8.1-9.9-6.07,0-9.45,5.06-10.01,9.9h18.12Z"/>
      <path class="cls-1" d="M2114.4,393.9h25.74l7.48,16.44c3.17-5.56,6.69-11,10.21-16.44h23.7l-19.96,26.77c5.9,10.09,12.25,19.96,18.6,29.82h-25.4l-8.85-18.37-11.45,18.37h-24.61l22-29.6-17.46-26.99Z"/>
      <path class="cls-1" d="M2215.91,406.96c-.34,8.52-.79,13.7-.79,21.12,0,4.28.9,7.77,5.63,7.77,2.7,0,5.29-.57,7.88-1.24l-2.81,15.53c-4.84,1.24-9.79,1.8-14.74,1.8-10.8,0-18-2.93-18-14.97,0-8.89,1.24-17.78,1.58-30.01h-8.44l.56-13.06h9.11l.68-9.59,20.48-4.61-.56,14.2h12.6l-.45,13.06h-12.71Z"/>
      <path class="cls-1" d="M2330.63,402.61c.31-7.27.63-12.11.63-26.12h25.38c-1.44,21.97-3.11,39.05-3.11,74h-24.92c.99-10.05,1.55-20.09,1.77-30.47h-29.48c-.33,7.07-.55,13.8-.88,30.47h-24.68c1.78-22.63,3.44-41.05,3.44-74h25.32c-.74,8.64-1.37,17.27-1.58,26.12h28.12Z"/>
      <path class="cls-1" d="M2367.58,450.49c1.93-17.13,2.72-34.02,2.95-56.59h22.68c-1.93,18.83-2.04,37.76-2.04,56.59h-23.59ZM2372.61,385.2l.22-13.06h21.47l-.55,13.06h-21.14Z"/>
      <path class="cls-1" d="M2426.32,400.02l.23-.23c3.63-4.08,8.62-7.26,14.18-7.26,1.47,0,3.06.12,4.54.57l.68,18.26c-1.93-.57-3.97-1.13-5.9-1.13-6.8,0-11.8,4.19-13.38,10.77-1.36,5.78-1.47,15.54-1.47,29.49h-21.89c1.25-15.54,2.27-31.19,2.27-56.59h20.98l-.23,6.12Z"/>
      <path class="cls-1" d="M2468.38,424.37c0,8.77,7.31,11.93,14.74,11.93,6.64,0,13.39-1.91,19.69-3.72l-2.7,15.75c-6.41,1.35-13.05,2.14-19.58,2.14-17.89,0-33.53-5.4-33.53-27.57,0-5.96,2.36-31.28,32.29-31.28,18.45,0,28.58,8.67,28.58,24.31,0,2.81-.23,5.62-.79,8.44h-38.71ZM2487.17,415.67c0-6.53-2.7-9.9-8.1-9.9-6.07,0-9.45,5.06-10.01,9.9h18.12Z"/>
      <path class="cls-1" d="M2517.77,450.49l.79-17.41h20.82l-1.01,17.41h-20.59Z"/>
      <path class="cls-3" d="M2556.03,450.49l.79-17.41h20.82l-1.01,17.41h-20.59Z"/>
      <path class="cls-4" d="M2594.28,450.49l.79-17.41h20.82l-1.01,17.41h-20.59Z"/>
    </g>
  </g>
  <g>
    <g>
      <path class="cls-4" d="M22.5,318.92l.97,8.85c5.56-36.8,15.09-74.49,31.13-108.61-5.64-6.33-10.72-12.9-15.17-19.67-.54,1.41-1.06,2.83-1.57,4.25-13.23,37.04-16.56,75.94-15.36,115.17Z"/>
      <path class="cls-4" d="M436.93,292.01c-1.98,13.22-5.47,26.09-10.89,38.31-25.21,9.04-41.71,28.29-48.17,54.15-1.04,4.18-1.4,8.42-2.28,12.59-.12.57-.22,1.14-.92,1.23-9.72-22.93-17.53-50.85-3.46-73.73l-5.18-12.15c-.73-.2-.79.19-1.2.47-1.63,1.13-4.44,4.6-5.71,6.29-9,12.02-12.29,27.41-13.24,42.18-2.76-3.91-5.11-8.93-6.95-13.44-4.79-11.78-7.49-24.1-7.75-36.37-8.55.49-17.19.75-25.94.75s-16.58-.24-24.74-.68c-6.73,36.99,5.59,75.08,32.03,102.03l-4.23-15.44c-4.21-18.62-5.13-40.8,6.38-57-.96,11.31-.83,22.93,1.12,34.15,6.26,36.05,29.59,61.63,59.57,80.52,6.78,4.27,14.12,8.54,21.5,11.44,11.56-9.02,20.11-21.48,25.78-34.95l17.74,14.87c.81-4.75.42-9.94.94-14.65.08-.72.05-1.19.74-1.65,6.35,8.51,15.2,14.91,25.29,18.36,2.5.86,14.56,4,16.22,2.99,5-10.11,5.44-21.77,5.27-32.87,1.82.66,2.8,2.56,3.78,4.13l2.45,9.78c8.67-22.22,5.39-45.96-2.4-67.87l16.23-12.96-12.36-13.48,15.75-10.98c-2.84-5.8-9.54-16.6-5.42-22.77,3.69-5.52,13.56-4.94,19.39-5.56l13.92-15.58v-2.4l-21.63-29.7c-23.26,16.44-50.49,29.76-81.63,39.99Z"/>
      <path class="cls-4" d="M92.23,393.6c4.28,21,10.64,41.43,17.13,61.8.86.11.47-1.08.41-1.61-.66-6.93-2.64-14.7-3.7-21.73-5.56-37.01-10.3-78.84-3.77-115.87,1.56-8.83,3.96-17.43,7.05-25.82l11.5,34.54c.63-17.38,2.42-34.95,6.02-52.06-10.48-5.28-20.37-11.01-29.6-17.15-14.85,42.45-15.14,88.47-5.05,137.92Z"/>
      <path class="cls-4" d="M176.68,379.2c.12.55.06,1.91.8,1.83.4-12.01,1.71-24.16,5.4-35.62l3.71-7.56c-1.01,40.95,7.44,82.98,31.28,116.73,15.73,22.27,37.37,39.81,61.32,52.62l-15.26-19.52c-42.86-58.18-55.9-119.07-42.55-183.31-13.88-2.69-27.31-6.03-40.22-9.96-8.72,27.19-10.51,56.58-4.49,84.78Z"/>
    </g>
    <g>
      <path class="cls-3" d="M113.05,141.43c39.53-32.9,91.19-48.26,142.24-49.91l-76.28-18.71c-.15-.12.28-.59.48-.72,3.98-2.58,17.07-6.48,22.18-8.04,36.04-11,75.62-13.62,112.9-8.53,20.53,17,41.17,34.76,54.44,58.31l38.15,15.59,17.97,36.72,54.74,43.72-14.1,25.54c-10.62-5.19-20.59-12.36-26.92-22.53l-4.11-8.11c-5.17,13.16-7.54,24.77,7.35,31.74,5.26,2.46,11.06,3.63,16.66,4.99l.21,23.7c-19.47,14.35-49.38,13.93-71.72,6.96-14.09-4.39-37.98-16.69-28.87-35.1.38-.77,3.77-5.15,3.44-5.43-38.06,4.78-67.96,32.45-78.81,68.72-1.19,3.99-2.14,8.01-2.88,12.04,8.16.44,16.4.68,24.74.68,8.75,0,17.39-.26,25.94-.75-.32-15.23,3.13-30.35,11.1-44.22,24.33,25.48,61.56,28.15,94.76,23.98-.03.23-.08.46-.11.69,31.14-10.23,58.99-23.98,82.25-40.43l-15.35-22.01,13.81-19.14c-6.3-33.38-24.79-63-48.66-86.6-1.13-10.4-2.13-20.3-5.68-30.31-10.36-29.21-36.6-46.13-62.49-60.33l2.88,18.22c-28.21-20.12-63.41-27.19-97.4-30.7-5.94-.61-12.08-1.22-17.99-1.21l11.51,10.31c-4.7-.44-9.45-1.12-14.16-1.43-93.48-6.08-172.44,19.21-223.05,101.27-2.73,4.42-9.92,15.58-11.31,19.88-.08.24-.13.78.23.71,18.97-17.87,36.94-37.21,59.21-51.14.41-.26,1.04-1.2,1.49-.43-32.09,27.06-57.83,61.44-72.8,100.81,4.45,6.77,9.53,13.34,15.17,19.67,14.05-29.9,33.1-57.06,58.84-78.49Z"/>
      <path class="cls-3" d="M230.45,148.96l22.44-7.06c-32.75-4.24-67.27-2.6-97.72,10.95-37.63,16.74-63.62,49.36-80.27,86.21-.12,1.04.15.86.72.24,7.88-8.59,15.15-17.77,23.25-26.17,14.45-14.99,30.94-29.67,49.91-38.6-1.86,3.22-4.99,5.41-7.44,8.14-20.89,23.24-35.38,47.84-44.45,73.76,9.23,6.14,19.12,11.88,29.6,17.15,5.1-24.25,13.85-47.56,28.14-68.03,18.67-26.73,45.35-45.43,75.83-56.59Z"/>
      <path class="cls-3" d="M245.79,234.35c.18-.46.77-1.47.14-1.77-15.1,16.69-28.55,34.84-40.79,53.73l-1.2-36.94-3.55,4.84c-8.41,12.69-14.99,26.52-19.63,40.96,12.9,3.94,26.34,7.27,40.22,9.96,3.83-18.42,9.82-37.11,17.91-56.09,2.07-4.85,5.02-9.93,6.9-14.69Z"/>
      <path class="cls-3" d="M385.44,186.62c2.37.7,9.71.1,12.59-.11.71-.05,1.39.37,1.19-.71l-23.27-27.11h-34.3l.57,5.91,43.22,22.03Z"/>
    </g>
  </g>
</svg>