<?xml version="1.0" encoding="UTF-8"?>
<svg id="Layer_1" data-name="Layer 1" xmlns="http://www.w3.org/2000/svg" viewBox="0 0 1834.62 438.85">
  <defs>
    <style>
      .cls-1 {
        fill: #3e3e3e;
      }

      .cls-2 {
        fill: #f04c23;
      }

      .cls-3 {
        fill: #f79076;
      }
    </style>
  </defs>
  <g>
    <g>
      <path class="cls-1" d="M518.81,166.67c2.72.42,5.64.84,8.57.84,11.29,0,21.11-4.6,21.11-17.14,0-11.29-7.31-13.38-16.93-13.38-5.43,0-10.66.42-16.09.84-1.67,31.98-3.34,57.06-3.34,109.31h-41.38c2.3-21.11,6.06-99.27,6.06-139.4h73.98c34.28,0,39.71,26.96,39.71,39.71,0,29.68-22.57,47.44-51,47.44-4.81,0-9.4-.42-14-1.25l-6.69-26.96Z"/>
      <path class="cls-1" d="M651.25,135.61c-2.27,36.11-3.3,72.42-3.71,108.73h-42.25c4.71-42.4,6.35-81.93,6.55-136.61h72.3c9.83,0,49.16,1.02,49.16,36.25,0,21.5-12.7,33.18-31.95,39.94,7.99,20.48,18.02,40.14,26.63,60.42h-45.36c-7.43-26.2-17.12-51.58-26.61-77.16,3.3.62,6.81,1.03,10.11,1.03,11.97,0,26.2-4.54,26.2-18.78s-13.82-13.82-23.32-13.82h-17.74Z"/>
      <path class="cls-1" d="M915.23,173.5c0,50.76-37.6,75.41-85.01,75.41-42.82,0-82.09-20.47-82.09-68.1,0-57.65,46.37-76.24,86.68-76.24,42.61,0,80.42,22.35,80.42,68.93ZM791.99,179.34c0,22.98,16.08,39.06,39.06,39.06,25.07,0,40.31-20.05,40.31-43.86,0-22.56-15.04-39.48-38.02-39.48-25.48,0-41.36,19.63-41.36,44.28Z"/>
      <path class="cls-1" d="M1037.19,160.7c.64-14.74,1.28-24.56,1.28-52.97h44.68c-2.72,41.38-5.85,73.57-5.85,139.4h-45.35c1.91-19.3,2.97-38.61,3.39-58.55h-56.64c-.64,13.58-1.06,26.51-1.7,58.55h-44.88c3.34-42.64,6.48-77.33,6.48-139.4h44.75c-1.5,17.52-2.78,35.03-3.2,52.97h57.03Z"/>
      <path class="cls-1" d="M1155.62,107.73c-1.46,23.18-5.22,64.12-5.22,81.46,0,18.8,6.89,29.87,23.6,29.87,26.32,0,27.15-20.68,29.03-44.91,1.67-22.14,2.92-44.28,3.34-66.42h44.7c-.63,8.56-5.01,66.21-6.27,98.38-.83,21.3-19.84,43.45-70.81,43.45s-67.47-22.14-67.47-41.36c0-31.33,4.39-63.5,5.22-100.47h43.86Z"/>
      <path class="cls-1" d="M1267.55,247.13c4.6-37.2,10.45-104.71,12.12-139.4h56.41c1.46,11.9,14.4,57.41,19.21,86.43h.42c15.45-56.16,24.63-70.35,28.18-86.43h57.45c-1.25,20.27-3.76,81.92-3.76,139.4h-37.97c.83-12.17,3.1-46.42,2.89-97.58h-.41c-9.9,31.98-21.25,64.57-31.98,97.58h-37.74c-10.13-50.65-18.4-75.05-22.12-97.58h-.41c-3.1,28.32-5.79,80.01-5.99,97.58h-36.29Z"/>
      <path class="cls-1" d="M1507.53,208.1l-17.89,39.03h-49.2c14.84-24.45,62.07-114.95,73.57-139.4h52.67c16.09,46.82,33.44,93.21,51.2,139.4h-47.53c-3.46-13.21-8.13-26.02-12.81-39.03h-50.01ZM1550.98,177.43l-12.95-39.89-18.8,39.89h31.75Z"/>
      <path class="cls-1" d="M1732.64,196.95h.41c1.03-13.22,3.51-65.05,3.51-89.22h40.2c-1.25,14.21-7.11,102.82-7.73,139.4h-50.77c-16.2-30.51-35.56-59.55-50.5-89.22h-.42c-.63,12.62-3.16,68.17-3.16,89.22h-39.91c2.72-22.15,7.11-99.27,7.11-139.4h52.52l48.74,89.22Z"/>
    </g>
    <g>
      <path class="cls-1" d="M1156.51,325.4c-5.19-9.73-10.74-19.17-16.14-28.75,2.74.07,5.55.07,8.29.07s5.55,0,8.29-.07c2.31,5.91,5.48,11.39,7.78,17.22,3.24-5.84,6.85-11.39,10.09-17.22,2.67.07,5.33.07,8,.07,3.1,0,6.41,0,8.43-.07-6.77,9.95-13.62,19.75-20.11,29.83-.29,6.06-.58,12.18-.65,18.23-2.59,0-5.12-.07-7.64-.07s-5.12,0-7.71.07c.72-6.41,1.23-12.9,1.37-19.31Z"/>
      <path class="cls-1" d="M1226.12,326.11c0,12.76-9.3,19.53-21.4,19.53-17.87,0-21.12-12.4-21.12-18.02,0-12.68,9.73-19.67,21.76-19.67,11.24,0,20.75,6.06,20.75,18.16ZM1197.72,327.48c0,4.11,2.02,8.07,6.77,8.07,5.4,0,7.49-5.05,7.49-9.58,0-4.25-2.02-7.93-6.7-7.93-5.33,0-7.57,4.76-7.57,9.44Z"/>
      <path class="cls-1" d="M1256.4,340.06l-.14-.15c-2.98,4.36-7.48,5.67-12.71,5.67-10.1,0-13-4.94-13-11.04,0-2.32,1.31-18.88,1.31-26.07h14.23c-.29,6.47-1.31,12.93-1.31,19.32,0,3.48,1.16,6.46,5.16,6.46,3.7,0,5.74-2.9,6.46-6.17.95-4.07,1.09-12.42,1.31-19.61h14.09c-1.16,12.06-1.74,24.19-2.03,36.24h-13.37v-4.65Z"/>
      <path class="cls-1" d="M1294,312.39l.14-.15c2.32-2.61,5.52-4.65,9.08-4.65.94,0,1.96.07,2.9.36l.44,11.69c-1.23-.36-2.54-.72-3.78-.72-4.36,0-7.55,2.69-8.57,6.9-.87,3.7-.94,9.95-.94,18.88h-14.02c.8-9.95,1.45-19.97,1.45-36.24h13.44l-.14,3.92Z"/>
      <path class="cls-1" d="M1372.71,327.98h.14c.36-4.54,1.21-22.36,1.21-30.67h13.88c-.43,4.83-2.42,34.96-2.63,47.4h-17.57c-5.57-10.49-12.22-20.47-17.36-30.67h-.14c-.22,4.34-1.08,23.43-1.08,30.67h-13.79c.92-7.53,2.42-33.75,2.42-47.4h18.17l16.75,30.67Z"/>
      <path class="cls-1" d="M1407.71,327.98c0,5.62,4.68,7.64,9.44,7.64,4.25,0,8.58-1.23,12.61-2.38l-1.73,10.09c-4.11.86-8.36,1.37-12.54,1.37-11.46,0-21.47-3.46-21.47-17.66,0-3.82,1.51-20.04,20.68-20.04,11.82,0,18.3,5.55,18.3,15.57,0,1.8-.14,3.6-.5,5.4h-24.79ZM1419.74,322.41c0-4.18-1.73-6.34-5.19-6.34-3.89,0-6.05,3.24-6.41,6.34h11.6Z"/>
      <path class="cls-1" d="M1436.73,308.47h16.49l4.79,10.53c2.03-3.56,4.28-7.04,6.54-10.53h15.18l-12.78,17.14c3.78,6.46,7.84,12.78,11.91,19.1h-16.27l-5.67-11.77-7.34,11.77h-15.76l14.09-18.96-11.18-17.29Z"/>
      <path class="cls-1" d="M1501.74,316.83c-.22,5.46-.51,8.77-.51,13.53,0,2.74.58,4.97,3.6,4.97,1.73,0,3.39-.36,5.05-.8l-1.8,9.95c-3.1.79-6.27,1.15-9.44,1.15-6.92,0-11.53-1.88-11.53-9.59,0-5.69.79-11.39,1.01-19.22h-5.41l.36-8.36h5.84l.43-6.14,13.11-2.95-.36,9.09h8.07l-.29,8.36h-8.14Z"/>
      <path class="cls-1" d="M1575.22,314.04c.2-4.66.4-7.76.4-16.73h16.26c-.92,14.07-1.99,25.01-1.99,47.4h-15.96c.64-6.44.99-12.87,1.13-19.52h-18.88c-.21,4.53-.35,8.84-.57,19.52h-15.81c1.14-14.5,2.2-26.29,2.2-47.4h16.21c-.47,5.53-.88,11.06-1.01,16.73h18.01Z"/>
      <path class="cls-1" d="M1598.89,344.71c1.23-10.97,1.74-21.79,1.89-36.24h14.53c-1.23,12.06-1.31,24.19-1.31,36.24h-15.11ZM1602.11,302.89l.14-8.36h13.75l-.35,8.36h-13.54Z"/>
      <path class="cls-1" d="M1636.5,312.39l.15-.15c2.32-2.61,5.52-4.65,9.08-4.65.94,0,1.96.07,2.9.36l.44,11.69c-1.23-.36-2.54-.72-3.78-.72-4.36,0-7.55,2.69-8.57,6.9-.87,3.7-.94,9.95-.94,18.88h-14.02c.8-9.95,1.45-19.97,1.45-36.24h13.44l-.15,3.92Z"/>
      <path class="cls-1" d="M1663.44,327.98c0,5.62,4.68,7.64,9.44,7.64,4.25,0,8.58-1.23,12.61-2.38l-1.73,10.09c-4.11.86-8.36,1.37-12.54,1.37-11.46,0-21.47-3.46-21.47-17.66,0-3.82,1.51-20.04,20.68-20.04,11.82,0,18.3,5.55,18.3,15.57,0,1.8-.14,3.6-.5,5.4h-24.79ZM1675.48,322.41c0-4.18-1.73-6.34-5.19-6.34-3.89,0-6.05,3.24-6.41,6.34h11.6Z"/>
      <path class="cls-1" d="M1695.08,344.71l.5-11.15h13.33l-.65,11.15h-13.19Z"/>
      <path class="cls-2" d="M1719.58,344.71l.5-11.15h13.33l-.65,11.15h-13.19Z"/>
      <path class="cls-3" d="M1744.08,344.71l.5-11.15h13.33l-.65,11.15h-13.19Z"/>
    </g>
  </g>
  <g>
    <g>
      <path class="cls-3" d="M40.88,266.35l.73,6.62c4.16-27.51,11.28-55.68,23.27-81.19-4.22-4.73-8.01-9.64-11.34-14.7-.4,1.05-.79,2.11-1.17,3.18-9.89,27.69-12.38,56.77-11.49,86.1Z"/>
      <path class="cls-3" d="M350.69,246.24c-1.48,9.88-4.09,19.51-8.14,28.64-18.85,6.76-31.18,21.15-36.01,40.48-.78,3.12-1.05,6.3-1.7,9.42-.09.43-.17.85-.69.92-7.27-17.14-13.1-38.01-2.59-55.12l-3.87-9.08c-.54-.15-.59.14-.9.35-1.22.85-3.32,3.44-4.27,4.7-6.73,8.98-9.19,20.49-9.9,31.53-2.06-2.92-3.82-6.68-5.19-10.05-3.58-8.8-5.6-18.02-5.79-27.19-6.39.36-12.85.56-19.39.56s-12.4-.18-18.49-.51c-5.03,27.65,4.18,56.13,23.95,76.27l-3.16-11.54c-3.15-13.92-3.83-30.5,4.77-42.61-.72,8.45-.62,17.14.83,25.53,4.68,26.95,22.12,46.07,44.53,60.19,5.07,3.19,10.55,6.38,16.07,8.55,8.64-6.74,15.03-16.06,19.27-26.13l13.26,11.12c.61-3.55.32-7.43.7-10.95.06-.54.04-.89.56-1.23,4.75,6.36,11.36,11.14,18.91,13.72,1.87.64,10.89,2.99,12.13,2.24,3.74-7.56,4.07-16.27,3.94-24.57,1.36.49,2.1,1.91,2.82,3.09l1.83,7.31c6.48-16.61,4.03-34.35-1.8-50.74l12.14-9.69-9.24-10.08,11.77-8.21c-2.13-4.34-7.13-12.41-4.05-17.02,2.76-4.13,10.14-3.69,14.49-4.16l10.41-11.65v-1.79l-16.17-22.2c-17.39,12.29-37.74,22.25-61.03,29.9Z"/>
      <path class="cls-3" d="M93.01,322.18c3.2,15.7,7.95,30.97,12.8,46.2.64.08.35-.8.31-1.21-.49-5.18-1.98-10.99-2.76-16.25-4.15-27.67-7.7-58.94-2.82-86.62,1.16-6.6,2.96-13.03,5.27-19.3l8.6,25.82c.47-12.99,1.81-26.13,4.5-38.92-7.83-3.95-15.22-8.23-22.12-12.82-11.1,31.74-11.32,66.13-3.78,103.1Z"/>
      <path class="cls-3" d="M156.14,311.41c.09.41.05,1.43.6,1.37.3-8.98,1.28-18.06,4.04-26.63l2.77-5.65c-.76,30.61,5.56,62.03,23.38,87.26,11.76,16.65,27.93,29.76,45.84,39.34l-11.41-14.59c-32.04-43.49-41.79-89.01-31.81-137.03-10.37-2.01-20.42-4.51-30.06-7.45-6.52,20.32-7.86,42.3-3.36,63.38Z"/>
    </g>
    <g>
      <path class="cls-2" d="M108.57,133.67c29.55-24.59,68.17-36.07,106.33-37.31l-57.02-13.99c-.12-.09.21-.44.36-.54,2.98-1.93,12.76-4.84,16.58-6.01,26.94-8.22,56.53-10.18,84.4-6.38,15.35,12.71,30.77,25.98,40.7,43.59l28.52,11.65,13.44,27.45,40.92,32.68-10.54,19.09c-7.94-3.88-15.39-9.24-20.12-16.84l-3.07-6.07c-3.86,9.84-5.64,18.52,5.49,23.73,3.93,1.84,8.27,2.72,12.46,3.73l.15,17.72c-14.56,10.73-36.91,10.41-53.61,5.2-10.53-3.28-28.39-12.47-21.58-26.24.28-.58,2.82-3.85,2.57-4.06-28.45,3.57-50.81,24.26-58.91,51.37-.89,2.98-1.6,5.99-2.15,9,6.1.33,12.26.51,18.49.51,6.54,0,13-.2,19.39-.56-.24-11.38,2.34-22.69,8.3-33.06,18.19,19.04,46.02,21.04,70.84,17.93-.03.17-.06.35-.08.52,23.28-7.65,44.1-17.93,61.49-30.22l-11.48-16.45,10.33-14.31c-4.71-24.95-18.53-47.09-36.37-64.74-.85-7.77-1.59-15.18-4.24-22.66-7.75-21.84-27.36-34.48-46.72-45.1l2.16,13.62c-21.09-15.04-47.4-20.32-72.81-22.95-4.44-.46-9.03-.91-13.44-.9l8.61,7.71c-3.51-.33-7.07-.84-10.58-1.07-69.88-4.55-128.91,14.36-166.74,75.7-2.04,3.31-7.42,11.65-8.45,14.86-.06.18-.1.59.17.53,14.18-13.36,27.61-27.82,44.26-38.23.31-.19.78-.9,1.11-.32-23.99,20.23-43.23,45.93-54.42,75.36,3.33,5.06,7.12,9.97,11.34,14.7,10.5-22.35,24.74-42.65,43.99-58.67Z"/>
      <path class="cls-2" d="M196.33,139.3l16.77-5.28c-24.48-3.17-50.29-1.94-73.05,8.18-28.13,12.51-47.56,36.9-60.01,64.45-.09.78.11.64.54.18,5.89-6.42,11.33-13.28,17.38-19.56,10.81-11.21,23.13-22.18,37.31-28.86-1.39,2.41-3.73,4.05-5.56,6.09-15.61,17.37-26.45,35.76-33.23,55.14,6.9,4.59,14.29,8.88,22.12,12.82,3.81-18.13,10.35-35.56,21.04-50.85,13.96-19.98,33.9-33.96,56.68-42.31Z"/>
      <path class="cls-2" d="M207.8,203.13c.14-.35.58-1.1.11-1.33-11.29,12.48-21.34,26.04-30.49,40.17l-.9-27.61-2.66,3.61c-6.29,9.49-11.21,19.82-14.67,30.62,9.65,2.94,19.69,5.44,30.06,7.45,2.86-13.77,7.34-27.74,13.39-41.93,1.55-3.63,3.75-7.42,5.16-10.98Z"/>
      <path class="cls-2" d="M312.2,167.45c1.77.52,7.26.08,9.41-.08.53-.04,1.04.28.89-.53l-17.39-20.27h-25.64l.43,4.42,32.31,16.47Z"/>
    </g>
  </g>
</svg>